<?xml version="1.0" encoding="utf-8"?>
<!-- Generator: Adobe Illustrator 23.0.1, SVG Export Plug-In . SVG Version: 6.00 Build 0)  -->
<svg version="1.1" id="Layer_1" xmlns="http://www.w3.org/2000/svg" xmlns:xlink="http://www.w3.org/1999/xlink" x="0px" y="0px"
	 viewBox="0 0 400.47 384.3" style="enable-background:new 0 0 400.47 384.3;" xml:space="preserve">
<style type="text/css">
	.st0{stroke:#EC008C;stroke-miterlimit:10;}
</style>
<g>
	<rect x="0.47" y="0.51" class="st0" width="400" height="383.79"/>
	<g>
		<g>
			<line class="st0" x1="110.28" y1="384.27" x2="111.41" y2="0.48"/>
		</g>
		<line class="st0" x1="120.04" y1="383.79" x2="121.18" y2="0"/>
	</g>
	<g>
		<line class="st0" x1="196.08" y1="384.37" x2="197.22" y2="0.59"/>
	</g>
	<line class="st0" x1="205.84" y1="384.89" x2="206.98" y2="1.1"/>
	<g>
		<line class="st0" x1="281.66" y1="384.69" x2="282.8" y2="0.9"/>
	</g>
	<line class="st0" x1="291.42" y1="384.2" x2="292.56" y2="0.42"/>
	<line class="st0" x1="0.48" y1="84.41" x2="400.48" y2="84.41"/>
	<line class="st0" x1="0.47" y1="94.93" x2="400.47" y2="94.93"/>
	<line class="st0" x1="0" y1="145.34" x2="400.47" y2="145.34"/>
	<line class="st0" x1="0.69" y1="155.85" x2="400.47" y2="155.85"/>
	<line class="st0" x1="0.69" y1="206.01" x2="400.95" y2="206.01"/>
	<line class="st0" x1="0.69" y1="216.53" x2="400.38" y2="216.53"/>
	<line class="st0" x1="0.69" y1="265.96" x2="400.47" y2="265.96"/>
	<line class="st0" x1="0.48" y1="276.48" x2="400.48" y2="276.48"/>
	<line class="st0" x1="0.69" y1="326.45" x2="400.4" y2="326.45"/>
	<line class="st0" x1="0.69" y1="336.97" x2="400.38" y2="336.97"/>
	<line class="st0" x1="0.47" y1="24.02" x2="400.47" y2="24.02"/>
	<line class="st0" x1="0.47" y1="34.54" x2="400.47" y2="34.54"/>
	<g>
		<line class="st0" x1="24.35" y1="384.19" x2="25.48" y2="0.4"/>
	</g>
	<line class="st0" x1="34.11" y1="384.71" x2="35.25" y2="0.92"/>
	<g>
		<g>
			<line class="st0" x1="368.37" y1="384.32" x2="369.51" y2="0.53"/>
		</g>
		<line class="st0" x1="378.14" y1="383.84" x2="379.28" y2="0.05"/>
	</g>
</g>
</svg>
